<?xml version="1.0" encoding="utf-8"?>
<!-- Generator: Adobe Illustrator 22.1.0, SVG Export Plug-In . SVG Version: 6.00 Build 0)  -->
<svg version="1.1" id="Layer_1" xmlns="http://www.w3.org/2000/svg" xmlns:xlink="http://www.w3.org/1999/xlink" x="0px" y="0px"
	 viewBox="0 0 35.8 32.1" style="enable-background:new 0 0 35.8 32.1;" xml:space="preserve">
<style type="text/css">
	.st0{clip-path:url(#SVGID_2_);fill:#C0CAE2;}
	.st1{clip-path:url(#SVGID_2_);fill:#A09EF0;}
	.st2{clip-path:url(#SVGID_2_);fill:#5F44B1;}
	.st3{clip-path:url(#SVGID_2_);fill:#3A0738;}
	.st4{clip-path:url(#SVGID_2_);}
	.st5{fill:#D6C9E7;}
	.st6{fill:#F9CB04;}
	.st7{fill:#A486F7;}
	.st8{fill:#FDCB58;}
</style>
<g>
	<defs>
		<path id="SVGID_1_" d="M35.8,9.9c0-5.4-4.4-9.9-9.9-9.9c-3.3,0-6.2,1.6-8,4.1C16.1,1.6,13.2,0,9.9,0C4.4,0,0,4.4,0,9.9
			c0,0.8,0.1,1.5,0.3,2.2c1.4,8.5,10.8,17.5,17.6,20c6.8-2.5,16.2-11.4,17.6-20C35.7,11.4,35.8,10.6,35.8,9.9z"/>
	</defs>
	<clipPath id="SVGID_2_">
		<use xlink:href="#SVGID_1_"  style="overflow:visible;"/>
	</clipPath>
	<rect class="st0" width="35.8" height="32.1"/>
	<rect class="st1" width="35.8" height="27.5"/>
	<rect class="st2" width="35.8" height="22.9"/>
	<rect class="st3" width="35.8" height="18.3"/>
	<rect class="st2" width="35.8" height="13.7"/>
	<rect class="st1" width="35.8" height="9.2"/>
	<rect class="st0" width="35.8" height="4.6"/>
	<g id="SPLINE_2_" class="st4">
		<polyline class="st5" points="17.9,17.9 17.7,17.5 17.5,17.1 17.3,16.7 17.1,16.3 16.7,15.4 16.3,14.5 15.9,13.5 15.7,13.1 
			15.6,12.7 15.4,12.3 15.3,11.9 15.3,11.6 15.2,11.3 15.2,11 15.1,10.7 15.1,10.2 15.2,10 15.2,9.7 15.3,9.4 15.4,9.1 15.6,8.8 
			15.8,8.5 16.1,8.2 16.4,7.9 16.7,7.7 17.1,7.6 17.5,7.5 17.9,7.5 		"/>
	</g>
	<g id="SPLINE_3_" class="st4">
		<polyline class="st5" points="17.9,17.9 18.1,17.5 18.3,17.1 18.5,16.7 18.7,16.3 19.1,15.4 19.5,14.5 19.9,13.5 20.1,13.1 
			20.2,12.7 20.3,12.3 20.4,11.9 20.5,11.6 20.6,11.3 20.6,11 20.6,10.7 20.6,10.2 20.6,10 20.6,9.7 20.5,9.4 20.3,9.1 20.1,8.8 
			19.9,8.5 19.7,8.2 19.4,7.9 19,7.7 18.7,7.6 18.3,7.5 17.9,7.5 		"/>
	</g>
	<g id="SPLINE_9_" class="st4">
		<polyline class="st5" points="18.4,18.1 19.4,18.2 20.4,18.3 21.3,18.4 22.2,18.5 23,18.5 23.8,18.6 24.5,18.8 24.8,18.9 
			25.1,18.9 25.4,19.1 25.7,19.2 26,19.3 26.2,19.5 26.5,19.7 26.7,19.9 26.9,20.1 27.1,20.3 27.3,20.5 27.4,20.8 27.5,21.1 
			27.6,21.3 27.7,21.6 27.7,21.9 27.7,22.1 27.7,22.4 27.6,22.7 27.5,22.9 27.4,23.2 27.3,23.4 27.2,23.7 27,23.9 26.8,24 
			26.6,24.2 26.4,24.3 26.1,24.4 25.9,24.5 25.6,24.6 25.3,24.6 25,24.6 24.7,24.6 24.4,24.6 24.1,24.5 23.8,24.4 23.5,24.3 
			23.2,24.2 23,24 22.7,23.7 22.4,23.5 22.1,23.1 21.7,22.7 21.3,22.3 20.9,21.7 20.5,21.2 20,20.5 19.8,20.2 19.5,19.8 19.2,19.4 
			19,19 18.7,18.6 18.4,18.1 		"/>
	</g>
	<g id="SPLINE_7_" class="st4">
		<polyline class="st5" points="17.4,18.1 16.3,18.2 15.3,18.3 14.4,18.4 13.6,18.5 12.7,18.5 12,18.6 11.3,18.8 11,18.9 10.7,18.9 
			10.4,19.1 10.1,19.2 9.8,19.3 9.5,19.5 9.3,19.7 9.1,19.9 8.9,20.1 8.7,20.3 8.5,20.5 8.4,20.8 8.3,21.1 8.2,21.3 8.1,21.6 
			8.1,21.9 8.1,22.1 8.1,22.4 8.1,22.7 8.2,22.9 8.3,23.2 8.5,23.4 8.6,23.7 8.8,23.9 9,24 9.2,24.2 9.4,24.3 9.7,24.4 9.9,24.5 
			10.2,24.6 10.5,24.6 10.8,24.6 11.1,24.6 11.4,24.6 11.7,24.5 12,24.4 12.3,24.3 12.5,24.2 12.8,24 13.1,23.7 13.4,23.5 
			13.7,23.1 14.1,22.7 14.4,22.3 14.8,21.7 15.3,21.2 15.8,20.5 16,20.2 16.3,19.8 16.5,19.4 16.8,19 17.1,18.6 17.4,18.1 		"/>
	</g>
	<g id="SPLINE" class="st4">
		<polyline class="st6" points="17.9,17 18.1,16.5 18.4,16.1 18.6,15.6 18.8,15.2 19,14.8 19.1,14.4 19.3,14 19.4,13.7 19.6,13.4 
			19.7,13.1 19.8,12.8 19.9,12.5 20,12.2 20.1,12 20.2,11.5 20.2,11.3 20.2,11 20.2,10.8 20.2,10.5 20.1,10.2 20,9.9 19.9,9.6 
			19.7,9.4 19.5,9.1 19.3,8.9 19,8.7 18.8,8.6 18.6,8.5 18.4,8.4 18.1,8.3 17.9,8.3 		"/>
	</g>
	<g id="SPLINE_1_" class="st4">
		<polyline class="st6" points="17.9,17 17.6,16.5 17.4,16.1 17.2,15.6 17,15.2 16.8,14.8 16.6,14.4 16.5,14 16.3,13.7 16.2,13.4 
			16.1,13.1 16,12.8 15.9,12.5 15.8,12.2 15.7,12 15.6,11.5 15.6,11.3 15.6,11 15.6,10.8 15.6,10.5 15.7,10.2 15.8,9.9 15.9,9.6 
			16.1,9.4 16.3,9.1 16.5,8.9 16.7,8.7 17,8.6 17.2,8.5 17.4,8.4 17.7,8.3 17.9,8.3 		"/>
	</g>
	<g id="SPLINE_4_" class="st4">
		<polyline class="st7" points="18.8,17.6 19.1,17.7 19.5,17.7 19.8,17.7 20.1,17.8 20.5,17.8 20.8,17.8 21.1,17.8 21.4,17.8 
			21.6,17.8 21.7,17.8 21.8,17.8 21.9,17.7 22.1,17.7 22.1,17.7 22.2,17.6 22.3,17.5 22.4,17.5 22.5,17.4 22.5,17.3 22.6,17.2 
			22.6,17.1 22.6,16.9 22.6,16.8 22.6,16.6 22.6,16.5 22.6,16.3 22.6,16.2 22.6,16 22.5,15.8 22.4,15.6 22.3,15.5 22.2,15.3 
			22.1,15.2 22,15 21.8,14.9 21.7,14.8 21.5,14.6 21.3,14.6 21.2,14.5 21,14.4 20.8,14.4 20.7,14.4 20.5,14.4 20.4,14.4 20.3,14.5 
			20.3,14.5 20.2,14.5 20.1,14.6 20.1,14.7 20,14.7 19.9,14.8 19.9,14.9 19.8,15 19.7,15.1 19.7,15.2 19.6,15.3 19.6,15.5 
			19.5,15.6 19.4,15.8 19.4,15.9 19.3,16.1 19.2,16.3 19.2,16.5 19.1,16.7 19,16.9 19,17.1 18.9,17.4 18.8,17.6 		"/>
	</g>
	<g id="SPLINE_5_" class="st4">
		<polyline class="st7" points="17,17.6 16.6,17.7 16.3,17.7 16,17.7 15.6,17.8 15.3,17.8 15,17.8 14.6,17.8 14.3,17.8 14.2,17.8 
			14.1,17.8 13.9,17.8 13.8,17.7 13.7,17.7 13.6,17.7 13.5,17.6 13.5,17.5 13.4,17.5 13.3,17.4 13.3,17.3 13.2,17.2 13.2,17.1 
			13.1,16.9 13.1,16.8 13.1,16.6 13.1,16.5 13.1,16.3 13.2,16.2 13.2,16 13.3,15.8 13.3,15.6 13.4,15.5 13.5,15.3 13.7,15.2 
			13.8,15 13.9,14.9 14.1,14.8 14.3,14.6 14.4,14.6 14.6,14.5 14.8,14.4 14.9,14.4 15.1,14.4 15.2,14.4 15.4,14.4 15.4,14.5 
			15.5,14.5 15.6,14.5 15.6,14.6 15.7,14.7 15.8,14.7 15.8,14.8 15.9,14.9 16,15 16,15.1 16.1,15.2 16.1,15.3 16.2,15.5 16.3,15.6 
			16.3,15.8 16.4,15.9 16.5,16.1 16.5,16.3 16.6,16.5 16.7,16.7 16.7,16.9 16.8,17.1 16.9,17.4 17,17.6 		"/>
	</g>
	<g id="SPLINE_6_" class="st4">
		<polyline class="st6" points="16.6,18.6 14.1,18.8 12.8,18.9 12.2,19 11.6,19.1 11,19.2 10.8,19.3 10.5,19.4 10.3,19.5 10.1,19.6 
			9.9,19.8 9.7,19.9 9.5,20.1 9.4,20.3 9.2,20.5 9.1,20.8 9,21 8.9,21.2 8.9,21.5 8.9,21.8 8.9,22 8.9,22.3 9,22.5 9.1,22.7 9.2,23 
			9.3,23.2 9.5,23.3 9.7,23.5 9.9,23.6 10.2,23.8 10.4,23.8 10.7,23.9 11,23.9 11.2,23.9 11.5,23.9 11.8,23.9 12,23.8 12.3,23.7 
			12.5,23.6 12.8,23.4 13,23.2 13.3,23 13.6,22.7 13.8,22.4 14.1,22.1 14.4,21.7 14.8,21.3 15.1,20.8 15.5,20.3 15.8,19.8 
			16.2,19.2 16.6,18.6 		"/>
	</g>
	<g id="SPLINE_8_" class="st4">
		<polyline class="st6" points="19.1,18.6 21.7,18.8 23,18.9 23.6,19 24.2,19.1 24.7,19.2 25,19.3 25.2,19.4 25.5,19.5 25.7,19.6 
			25.9,19.8 26.1,19.9 26.2,20.1 26.4,20.3 26.5,20.5 26.7,20.8 26.8,21 26.8,21.2 26.9,21.5 26.9,21.8 26.9,22 26.9,22.3 
			26.8,22.5 26.7,22.7 26.6,23 26.4,23.2 26.3,23.3 26.1,23.5 25.8,23.6 25.6,23.8 25.3,23.8 25.1,23.9 24.8,23.9 24.5,23.9 
			24.3,23.9 24,23.9 23.7,23.8 23.5,23.7 23.2,23.6 23,23.4 22.7,23.2 22.5,23 22.2,22.7 21.9,22.4 21.6,22.1 21.3,21.7 21,21.3 
			20.7,20.8 20.3,20.3 19.9,19.8 19.5,19.2 19.1,18.6 		"/>
	</g>
	<g id="SPLINE_10_" class="st4">
		<polyline class="st7" points="17.9,18.6 18.1,18.8 18.2,19 18.4,19.2 18.6,19.4 18.7,19.5 18.8,19.7 19,19.9 19.1,20.1 19.2,20.3 
			19.3,20.4 19.4,20.6 19.5,20.7 19.5,20.9 19.6,21 19.6,21.1 19.7,21.2 19.7,21.3 19.6,21.5 19.6,21.6 19.5,21.7 19.4,21.8 
			19.3,22 19.2,22.1 19,22.2 18.9,22.3 18.7,22.3 18.6,22.4 18.4,22.4 18.3,22.5 18.2,22.5 18,22.5 17.9,22.5 		"/>
	</g>
	<g id="SPLINE_11_" class="st4">
		<polyline class="st7" points="17.9,18.6 17.7,18.8 17.5,19 17.4,19.2 17.2,19.4 17.1,19.5 16.9,19.7 16.8,19.9 16.7,20.1 
			16.6,20.3 16.5,20.4 16.4,20.6 16.3,20.7 16.2,20.9 16.2,21 16.1,21.1 16.1,21.2 16.1,21.3 16.1,21.5 16.2,21.6 16.2,21.7 
			16.3,21.8 16.5,22 16.6,22.1 16.8,22.2 16.9,22.3 17.1,22.3 17.2,22.4 17.3,22.4 17.5,22.5 17.6,22.5 17.7,22.5 17.9,22.5 		"/>
	</g>
</g>
<path class="st8" d="M34.2,21.9l-3.8-1.4L29,16.7c-0.1-0.4-0.5-0.7-0.9-0.7s-0.8,0.3-0.9,0.7l-1.4,3.8l-3.8,1.4
	c-0.4,0.1-0.7,0.5-0.7,0.9c0,0.4,0.3,0.8,0.7,0.9l3.8,1.4l1.4,3.8c0.1,0.4,0.5,0.7,0.9,0.7s0.8-0.3,0.9-0.7l1.4-3.8l3.8-1.4
	c0.4-0.1,0.7-0.5,0.7-0.9S34.6,22.1,34.2,21.9z M11.2,5.9L8.9,5.1L8,2.7C7.8,2.3,7.5,2,7.1,2C6.6,2,6.3,2.3,6.1,2.7L5.2,5.1L2.9,5.9
	C2.5,6.1,2.2,6.4,2.2,6.9c0,0.4,0.3,0.8,0.7,0.9l2.4,0.9L6.1,11c0.1,0.4,0.5,0.7,0.9,0.7S7.8,11.4,8,11l0.9-2.4l2.4-0.9
	c0.4-0.1,0.7-0.5,0.7-0.9C11.9,6.4,11.6,6.1,11.2,5.9z"/>
</svg>
