0
SECTION
2
HEADER
9
$INSUNITS
70
4
9
$ACADVER
1
AC1014
9
$HANDSEED
5
FFFF
0
ENDSEC
0
SECTION
2
TABLES
0
TABLE
2
VPORT
5
8
100
AcDbSymbolTable
0
ENDTAB
0
TABLE
2
LTYPE
5
5
100
AcDbSymbolTable
0
LTYPE
5
14
100
AcDbSymbolTableRecord
100
AcDbLinetypeTableRecord
2
BYBLOCK
70
0
0
LTYPE
5
15
100
AcDbSymbolTableRecord
100
AcDbLinetypeTableRecord
2
BYLAYER
70
0
0
ENDTAB
0
TABLE
2
LAYER
5
2
100
AcDbSymbolTable
70
2
0
LAYER
5
50
100
AcDbSymbolTableRecord
100
AcDbLayerTableRecord
2
0
70
0
6
CONTINUOUS
0
ENDTAB
0
TABLE
2
STYLE
5
3
100
AcDbSymbolTable
70
1
0
STYLE
5
11
100
AcDbSymbolTableRecord
100
AcDbTextStyleTableRecord
2
STANDARD
70
0
0
ENDTAB
0
TABLE
2
VIEW
5
6
100
AcDbSymbolTable
70
0
0
ENDTAB
0
TABLE
2
UCS
5
7
100
AcDbSymbolTable
70
0
0
ENDTAB
0
TABLE
2
APPID
5
9
100
AcDbSymbolTable
70
2
0
APPID
5
12
100
AcDbSymbolTableRecord
100
AcDbRegAppTableRecord
2
ACAD
70
0
0
ENDTAB
0
TABLE
2
DIMSTYLE
5
A
100
AcDbSymbolTable
70
1
0
ENDTAB
0
TABLE
2
BLOCK_RECORD
5
1
100
AcDbSymbolTable
70
1
0
BLOCK_RECORD
5
1F
100
AcDbSymbolTableRecord
100
AcDbBlockTableRecord
2
*MODEL_SPACE
0
BLOCK_RECORD
5
1B
100
AcDbSymbolTableRecord
100
AcDbBlockTableRecord
2
*PAPER_SPACE
0
ENDTAB
0
ENDSEC
0
SECTION
2
BLOCKS
0
BLOCK
5
20
100
AcDbEntity
100
AcDbBlockBegin
2
*MODEL_SPACE
0
ENDBLK
5
21
100
AcDbEntity
100
AcDbBlockEnd
0
BLOCK
5
1C
100
AcDbEntity
100
AcDbBlockBegin
2
*PAPER_SPACE
0
ENDBLK
5
1D
100
AcDbEntity
100
AcDbBlockEnd
0
ENDSEC
0
SECTION
2
ENTITIES
0
SPLINE
5
100
100
AcDbEntity
8
0
100
AcDbSpline
70
4
71
5
72
37
73
31
74
0
42
0.000000001
43
0.0000000001
44
0.0000000001
40
0
40
0
40
0
40
0
40
0
40
0
40
0.033333333333333333
40
0.066666666666666666
40
0.10000000000000001
40
0.13333333333333333
40
0.16666666666666666
40
0.19999999999999998
40
0.23333333333333331
40
0.26666666666666666
40
0.29999999999999999
40
0.33333333333333331
40
0.36666666666666664
40
0.39999999999999997
40
0.43333333333333329
40
0.46666666666666662
40
0.49999999999999994
40
0.53333333333333333
40
0.56666666666666665
40
0.59999999999999998
40
0.6333333333333333
40
0.66666666666666663
40
0.69999999999999996
40
0.73333333333333328
40
0.76666666666666661
40
0.79999999999999993
40
0.83333333333333326
40
0.84825145910267041
40
0.84825145910267041
40
0.84825145910267041
40
0.84825145910267041
40
0.84825145910267041
40
0.84825145910267041
41
1
41
1
41
1
41
1
41
1
41
1
41
1
41
1
41
1
41
1
41
1
41
1
41
1
41
1
41
1
41
1
41
1
41
1
41
1
41
1
41
1
41
1
41
1
41
1
41
1
41
1
41
1
41
1
41
1
41
1
41
1
10
0
20
-0.26000001234933734
30
0
10
0.022155733487060437
20
-0.21672671573133004
30
0
10
0.065696055504212578
20
-0.1311922890410899
30
0
10
0.12869309960195902
20
-0.0059271380941079308
30
0
10
0.20805393785242354
20
0.15500899764671838
30
0
10
0.29949302562319563
20
0.34596517635718593
30
0
10
0.38314611331321941
20
0.526595548855878
30
0
10
0.45902897223798911
20
0.69676436240241668
30
0
10
0.52723096278918857
20
0.85631769019846438
30
0
10
0.58793856449257342
20
1.0051131942396567
30
0
10
0.64149029924044854
20
1.1429953505140267
30
0
10
0.68828317031587938
20
1.2700543666513207
30
0
10
0.72862777222162156
20
1.3869803189667476
30
0
10
0.7626080131622498
20
1.4954282579890359
30
0
10
0.78996777578138833
20
1.5983069053772034
30
0
10
0.80991894110213369
20
1.7003242576721167
30
0
10
0.82111763002297378
20
1.80688900357031
30
0
10
0.82116117753505746
20
1.9218952270022864
30
0
10
0.80717242631069552
20
2.0467676239354988
30
0
10
0.77377937499309524
20
2.1768920505005229
30
0
10
0.71887641473871933
20
2.3055335985663636
30
0
10
0.64493559248429355
20
2.4270020821092722
30
0
10
0.55640899471814098
20
2.5359753286085081
30
0
10
0.45875503195352263
20
2.6283429748411691
30
0
10
0.35670346518135471
20
2.7014512021595367
30
0
10
0.25308574591717625
20
2.7545003567775712
30
0
10
0.16082857264962169
20
2.7842352958114072
30
0
10
0.089551940002973673
20
2.7963392516585195
30
0
10
0.039055532658356124
20
2.7997776977039166
30
0
10
0.0092212583834177363
20
2.800073003041776
30
0
10
4.6389496844573275e-10
20
2.7999999374187992
30
0
0
SPLINE
5
101
100
AcDbEntity
8
0
100
AcDbSpline
70
4
71
5
72
37
73
31
74
0
42
0.000000001
43
0.0000000001
44
0.0000000001
40
0
40
0
40
0
40
0
40
0
40
0
40
0.033333333333333333
40
0.066666666666666666
40
0.10000000000000001
40
0.13333333333333333
40
0.16666666666666666
40
0.19999999999999998
40
0.23333333333333331
40
0.26666666666666666
40
0.29999999999999999
40
0.33333333333333331
40
0.36666666666666664
40
0.39999999999999997
40
0.43333333333333329
40
0.46666666666666662
40
0.49999999999999994
40
0.53333333333333333
40
0.56666666666666665
40
0.59999999999999998
40
0.6333333333333333
40
0.66666666666666663
40
0.69999999999999996
40
0.73333333333333328
40
0.76666666666666661
40
0.79999999999999993
40
0.83333333333333326
40
0.84825145910267041
40
0.84825145910267041
40
0.84825145910267041
40
0.84825145910267041
40
0.84825145910267041
40
0.84825145910267041
41
1
41
1
41
1
41
1
41
1
41
1
41
1
41
1
41
1
41
1
41
1
41
1
41
1
41
1
41
1
41
1
41
1
41
1
41
1
41
1
41
1
41
1
41
1
41
1
41
1
41
1
41
1
41
1
41
1
41
1
41
1
10
0
20
-0.26000001234933734
30
0
10
-0.022155733487060437
20
-0.21672671573133004
30
0
10
-0.065696055504212578
20
-0.1311922890410899
30
0
10
-0.12869309960195902
20
-0.0059271380941079308
30
0
10
-0.20805393785242354
20
0.15500899764671838
30
0
10
-0.29949302562319563
20
0.34596517635718593
30
0
10
-0.38314611331321941
20
0.526595548855878
30
0
10
-0.45902897223798911
20
0.69676436240241668
30
0
10
-0.52723096278918857
20
0.85631769019846438
30
0
10
-0.58793856449257342
20
1.0051131942396567
30
0
10
-0.64149029924044854
20
1.1429953505140267
30
0
10
-0.68828317031587938
20
1.2700543666513207
30
0
10
-0.72862777222162156
20
1.3869803189667476
30
0
10
-0.7626080131622498
20
1.4954282579890359
30
0
10
-0.78996777578138833
20
1.5983069053772034
30
0
10
-0.80991894110213369
20
1.7003242576721167
30
0
10
-0.82111763002297378
20
1.80688900357031
30
0
10
-0.82116117753505746
20
1.9218952270022864
30
0
10
-0.80717242631069552
20
2.0467676239354988
30
0
10
-0.77377937499309524
20
2.1768920505005229
30
0
10
-0.71887641473871933
20
2.3055335985663636
30
0
10
-0.64493559248429355
20
2.4270020821092722
30
0
10
-0.55640899471814098
20
2.5359753286085081
30
0
10
-0.45875503195352263
20
2.6283429748411691
30
0
10
-0.35670346518135471
20
2.7014512021595367
30
0
10
-0.25308574591717625
20
2.7545003567775712
30
0
10
-0.16082857264962169
20
2.7842352958114072
30
0
10
-0.089551940002973673
20
2.7963392516585195
30
0
10
-0.039055532658356124
20
2.7997776977039166
30
0
10
-0.0092212583834177363
20
2.800073003041776
30
0
10
-4.6389496844573275e-10
20
2.7999999374187992
30
0
0
SPLINE
5
102
100
AcDbEntity
8
0
100
AcDbSpline
70
4
71
5
72
38
73
32
74
0
42
0.000000001
43
0.0000000001
44
0.0000000001
40
0
40
0
40
0
40
0
40
0
40
0
40
0.033333333333333333
40
0.066666666666666666
40
0.10000000000000001
40
0.13333333333333333
40
0.16666666666666666
40
0.19999999999999998
40
0.23333333333333331
40
0.26666666666666666
40
0.29999999999999999
40
0.33333333333333331
40
0.36666666666666664
40
0.39999999999999997
40
0.43333333333333329
40
0.46666666666666662
40
0.49999999999999994
40
0.53333333333333333
40
0.56666666666666665
40
0.59999999999999998
40
0.6333333333333333
40
0.66666666666666663
40
0.69999999999999996
40
0.73333333333333328
40
0.76666666666666661
40
0.79999999999999993
40
0.83333333333333326
40
0.86666666666666659
40
0.89844861042414026
40
0.89844861042414026
40
0.89844861042414026
40
0.89844861042414026
40
0.89844861042414026
40
0.89844861042414026
41
1
41
1
41
1
41
1
41
1
41
1
41
1
41
1
41
1
41
1
41
1
41
1
41
1
41
1
41
1
41
1
41
1
41
1
41
1
41
1
41
1
41
1
41
1
41
1
41
1
41
1
41
1
41
1
41
1
41
1
41
1
41
1
10
0
20
-0.55785431722789558
30
0
10
-0.015595070298020802
20
-0.52929518058257552
30
0
10
-0.047063404195439112
20
-0.47104331532626809
30
0
10
-0.095100445198537401
20
-0.38026480956114439
30
0
10
-0.16082228279901553
20
-0.25241247698548136
30
0
10
-0.2456420333882024
20
-0.081407531305120323
30
0
10
-0.33274436158306392
20
0.10016863529254408
30
0
10
-0.42132267085780162
20
0.29096103628375497
30
0
10
-0.51003017375837767
20
0.48865567058654591
30
0
10
-0.5967588828205026
20
0.68958243140987585
30
0
10
-0.67878283622327884
20
0.8889321701884022
30
0
10
-0.75326805143782805
20
1.0815884385499448
30
0
10
-0.81767351140555833
20
1.2627795237979413
30
0
10
-0.87021810205733741
20
1.4288265476347219
30
0
10
-0.91028272390879317
20
1.5778120563213514
30
0
10
-0.93896709353155317
20
1.7104231951508655
30
0
10
-0.9582944779223741
20
1.8294200000827963
30
0
10
-0.97015553025706236
20
1.9389095439667623
30
0
10
-0.97546094200771749
20
2.0436997090164106
30
0
10
-0.97293294151296306
20
2.1486351053567314
30
0
10
-0.95900939086186421
20
2.2579165165659361
30
0
10
-0.92933848895464621
20
2.3743328324290514
30
0
10
-0.8798399153802261
20
2.4985512255348272
30
0
10
-0.80803768625629546
20
2.6282686348750022
30
0
10
-0.71401658017708025
20
2.7576893960306377
30
0
10
-0.59955450964688972
20
2.8789378912838561
30
0
10
-0.4674596527205892
20
2.9832611478669619
30
0
10
-0.32223481876756477
20
3.0615108878545727
30
0
10
-0.19713174879324991
20
3.0989095492183472
30
0
10
-0.099312299766543294
20
3.1110836351165694
30
0
10
-0.032848057627204469
20
3.1119436287513547
30
0
10
-2.0538854905022275e-14
20
3.1106251208290514
30
0
0
SPLINE
5
103
100
AcDbEntity
8
0
100
AcDbSpline
70
4
71
5
72
38
73
32
74
0
42
0.000000001
43
0.0000000001
44
0.0000000001
40
0
40
0
40
0
40
0
40
0
40
0
40
0.033333333333333333
40
0.066666666666666666
40
0.10000000000000001
40
0.13333333333333333
40
0.16666666666666666
40
0.19999999999999998
40
0.23333333333333331
40
0.26666666666666666
40
0.29999999999999999
40
0.33333333333333331
40
0.36666666666666664
40
0.39999999999999997
40
0.43333333333333329
40
0.46666666666666662
40
0.49999999999999994
40
0.53333333333333333
40
0.56666666666666665
40
0.59999999999999998
40
0.6333333333333333
40
0.66666666666666663
40
0.69999999999999996
40
0.73333333333333328
40
0.76666666666666661
40
0.79999999999999993
40
0.83333333333333326
40
0.86666666666666659
40
0.89844861042414026
40
0.89844861042414026
40
0.89844861042414026
40
0.89844861042414026
40
0.89844861042414026
40
0.89844861042414026
41
1
41
1
41
1
41
1
41
1
41
1
41
1
41
1
41
1
41
1
41
1
41
1
41
1
41
1
41
1
41
1
41
1
41
1
41
1
41
1
41
1
41
1
41
1
41
1
41
1
41
1
41
1
41
1
41
1
41
1
41
1
41
1
10
0
20
-0.55785431722789558
30
0
10
0.015595070298020802
20
-0.52929518058257552
30
0
10
0.047063404195439112
20
-0.47104331532626809
30
0
10
0.095100445198537401
20
-0.38026480956114439
30
0
10
0.16082228279901553
20
-0.25241247698548136
30
0
10
0.2456420333882024
20
-0.081407531305120323
30
0
10
0.33274436158306392
20
0.10016863529254408
30
0
10
0.42132267085780162
20
0.29096103628375497
30
0
10
0.51003017375837767
20
0.48865567058654591
30
0
10
0.5967588828205026
20
0.68958243140987585
30
0
10
0.67878283622327884
20
0.8889321701884022
30
0
10
0.75326805143782805
20
1.0815884385499448
30
0
10
0.81767351140555833
20
1.2627795237979413
30
0
10
0.87021810205733741
20
1.4288265476347219
30
0
10
0.91028272390879317
20
1.5778120563213514
30
0
10
0.93896709353155317
20
1.7104231951508655
30
0
10
0.9582944779223741
20
1.8294200000827963
30
0
10
0.97015553025706236
20
1.9389095439667623
30
0
10
0.97546094200771749
20
2.0436997090164106
30
0
10
0.97293294151296306
20
2.1486351053567314
30
0
10
0.95900939086186421
20
2.2579165165659361
30
0
10
0.92933848895464621
20
2.3743328324290514
30
0
10
0.8798399153802261
20
2.4985512255348272
30
0
10
0.80803768625629546
20
2.6282686348750022
30
0
10
0.71401658017708025
20
2.7576893960306377
30
0
10
0.59955450964688972
20
2.8789378912838561
30
0
10
0.4674596527205892
20
2.9832611478669619
30
0
10
0.32223481876756477
20
3.0615108878545727
30
0
10
0.19713174879324991
20
3.0989095492183472
30
0
10
0.099312299766543294
20
3.1110836351165694
30
0
10
0.032848057627204469
20
3.1119436287513547
30
0
10
2.0538854905022275e-14
20
3.1106251208290514
30
0
0
SPLINE
5
104
100
AcDbEntity
8
0
100
AcDbSpline
70
4
71
5
72
46
73
40
74
0
42
0.000000001
43
0.0000000001
44
0.0000000001
40
0
40
0
40
0
40
0
40
0
40
0
40
0.028571428571428571
40
0.057142857142857141
40
0.085714285714285715
40
0.11428571428571428
40
0.14285714285714285
40
0.17142857142857143
40
0.20000000000000001
40
0.22857142857142859
40
0.25714285714285717
40
0.28571428571428575
40
0.31428571428571433
40
0.34285714285714292
40
0.3714285714285715
40
0.40000000000000008
40
0.42857142857142866
40
0.45714285714285724
40
0.48571428571428582
40
0.51428571428571435
40
0.54285714285714293
40
0.57142857142857151
40
0.60000000000000009
40
0.62857142857142867
40
0.65714285714285725
40
0.68571428571428583
40
0.71428571428571441
40
0.74285714285714299
40
0.77142857142857157
40
0.80000000000000016
40
0.82857142857142874
40
0.85714285714285732
40
0.8857142857142859
40
0.91428571428571448
40
0.94285714285714306
40
0.97142857142857164
40
1
40
1
40
1
40
1
40
1
40
1
41
1
41
1
41
1
41
1
41
1
41
1
41
1
41
1
41
1
41
1
41
1
41
1
41
1
41
1
41
1
41
1
41
1
41
1
41
1
41
1
41
1
41
1
41
1
41
1
41
1
41
1
41
1
41
1
41
1
41
1
41
1
41
1
41
1
41
1
41
1
41
1
41
1
41
1
41
1
41
1
10
0.32504419915358462
20
-0.47170518897422886
30
0
10
0.34529528199358117
20
-0.47503191168717623
30
0
10
0.38604251234917514
20
-0.48153362690408053
30
0
10
0.4478985703119831
20
-0.49083100906964061
30
0
10
0.53184553677984381
20
-0.50231592739216513
30
0
10
0.63910688152865269
20
-0.51511005219155537
30
0
10
0.74829437469690774
20
-0.52622614277983981
30
0
10
0.85859362221488222
20
-0.53544103187034775
30
0
10
0.96861849778958853
20
-0.54239038851157684
30
0
10
1.076303533195059
20
-0.54653417993894915
30
0
10
1.1792743355276289
20
-0.54713358962166492
30
0
10
1.2751926086312375
20
-0.543220654598219
30
0
10
1.3620813755155636
20
-0.53358147192670713
30
0
10
1.4387310296412139
20
-0.51670525561957481
30
0
10
1.5048429949238185
20
-0.4908383017813947
30
0
10
1.5605857435158168
20
-0.45427038247733764
30
0
10
1.606283888684743
20
-0.40556995890928543
30
0
10
1.6420385681545784
20
-0.34385143944344171
30
0
10
1.667431863400501
20
-0.26900510075186168
30
0
10
1.6816008770068993
20
-0.18173621052272876
30
0
10
1.6832525509002454
20
-0.083642043294968174
30
0
10
1.6707338844092421
20
0.022742392809995789
30
0
10
1.6419927484189989
20
0.13382066678489307
30
0
10
1.5951416021159217
20
0.24522609976998286
30
0
10
1.5291593667744592
20
0.35221932180203858
30
0
10
1.4446214644137154
20
0.45006932589674242
30
0
10
1.3442736028577282
20
0.5343922647195456
30
0
10
1.2340778487861928
20
0.60163511619848287
30
0
10
1.1219944335130758
20
0.648830733630542
30
0
10
1.0154351107617579
20
0.67289420007094147
30
0
10
0.91944693758415197
20
0.67021680187472699
30
0
10
0.83389602578414368
20
0.63580462628412282
30
0
10
0.75254407810887325
20
0.56334321076624971
30
0
10
0.67226038291735957
20
0.44910554722383655
30
0
10
0.59049149325003447
20
0.29055886965777245
30
0
10
0.50591717929133662
20
0.086431372076989851
30
0
10
0.43543405960065695
20
-0.11375767459240407
30
0
10
0.38089258443050966
20
-0.28466577140699467
30
0
10
0.34378474350578125
20
-0.40782242353327813
30
0
10
0.32504419915358462
20
-0.47170518897422886
30
0
0
SPLINE
5
105
100
AcDbEntity
8
0
100
AcDbSpline
70
4
71
5
72
46
73
40
74
0
42
0.000000001
43
0.0000000001
44
0.0000000001
40
0
40
0
40
0
40
0
40
0
40
0
40
0.028571428571428571
40
0.057142857142857141
40
0.085714285714285715
40
0.11428571428571428
40
0.14285714285714285
40
0.17142857142857143
40
0.20000000000000001
40
0.22857142857142859
40
0.25714285714285717
40
0.28571428571428575
40
0.31428571428571433
40
0.34285714285714292
40
0.3714285714285715
40
0.40000000000000008
40
0.42857142857142866
40
0.45714285714285724
40
0.48571428571428582
40
0.51428571428571435
40
0.54285714285714293
40
0.57142857142857151
40
0.60000000000000009
40
0.62857142857142867
40
0.65714285714285725
40
0.68571428571428583
40
0.71428571428571441
40
0.74285714285714299
40
0.77142857142857157
40
0.80000000000000016
40
0.82857142857142874
40
0.85714285714285732
40
0.8857142857142859
40
0.91428571428571448
40
0.94285714285714306
40
0.97142857142857164
40
1
40
1
40
1
40
1
40
1
40
1
41
1
41
1
41
1
41
1
41
1
41
1
41
1
41
1
41
1
41
1
41
1
41
1
41
1
41
1
41
1
41
1
41
1
41
1
41
1
41
1
41
1
41
1
41
1
41
1
41
1
41
1
41
1
41
1
41
1
41
1
41
1
41
1
41
1
41
1
41
1
41
1
41
1
41
1
41
1
41
1
10
-0.32504419915358462
20
-0.47170518897422886
30
0
10
-0.34529528199358117
20
-0.47503191168717623
30
0
10
-0.38604251234917514
20
-0.48153362690408053
30
0
10
-0.4478985703119831
20
-0.49083100906964061
30
0
10
-0.53184553677984381
20
-0.50231592739216513
30
0
10
-0.63910688152865269
20
-0.51511005219155537
30
0
10
-0.74829437469690774
20
-0.52622614277983981
30
0
10
-0.85859362221488222
20
-0.53544103187034775
30
0
10
-0.96861849778958853
20
-0.54239038851157684
30
0
10
-1.076303533195059
20
-0.54653417993894915
30
0
10
-1.1792743355276289
20
-0.54713358962166492
30
0
10
-1.2751926086312375
20
-0.543220654598219
30
0
10
-1.3620813755155636
20
-0.53358147192670713
30
0
10
-1.4387310296412139
20
-0.51670525561957481
30
0
10
-1.5048429949238185
20
-0.4908383017813947
30
0
10
-1.5605857435158168
20
-0.45427038247733764
30
0
10
-1.606283888684743
20
-0.40556995890928543
30
0
10
-1.6420385681545784
20
-0.34385143944344171
30
0
10
-1.667431863400501
20
-0.26900510075186168
30
0
10
-1.6816008770068993
20
-0.18173621052272876
30
0
10
-1.6832525509002454
20
-0.083642043294968174
30
0
10
-1.6707338844092421
20
0.022742392809995789
30
0
10
-1.6419927484189989
20
0.13382066678489307
30
0
10
-1.5951416021159217
20
0.24522609976998286
30
0
10
-1.5291593667744592
20
0.35221932180203858
30
0
10
-1.4446214644137154
20
0.45006932589674242
30
0
10
-1.3442736028577282
20
0.5343922647195456
30
0
10
-1.2340778487861928
20
0.60163511619848287
30
0
10
-1.1219944335130758
20
0.648830733630542
30
0
10
-1.0154351107617579
20
0.67289420007094147
30
0
10
-0.91944693758415197
20
0.67021680187472699
30
0
10
-0.83389602578414368
20
0.63580462628412282
30
0
10
-0.75254407810887325
20
0.56334321076624971
30
0
10
-0.67226038291735957
20
0.44910554722383655
30
0
10
-0.59049149325003447
20
0.29055886965777245
30
0
10
-0.50591717929133662
20
0.086431372076989851
30
0
10
-0.43543405960065695
20
-0.11375767459240407
30
0
10
-0.38089258443050966
20
-0.28466577140699467
30
0
10
-0.34378474350578125
20
-0.40782242353327813
30
0
10
-0.32504419915358462
20
-0.47170518897422886
30
0
0
SPLINE
5
106
100
AcDbEntity
8
0
100
AcDbSpline
70
4
71
5
72
46
73
40
74
0
42
0.000000001
43
0.0000000001
44
0.0000000001
40
0
40
0
40
0
40
0
40
0
40
0
40
0.028571428571428571
40
0.057142857142857141
40
0.085714285714285715
40
0.11428571428571428
40
0.14285714285714285
40
0.17142857142857143
40
0.20000000000000001
40
0.22857142857142859
40
0.25714285714285717
40
0.28571428571428575
40
0.31428571428571433
40
0.34285714285714292
40
0.3714285714285715
40
0.40000000000000008
40
0.42857142857142866
40
0.45714285714285724
40
0.48571428571428582
40
0.51428571428571435
40
0.54285714285714293
40
0.57142857142857151
40
0.60000000000000009
40
0.62857142857142867
40
0.65714285714285725
40
0.68571428571428583
40
0.71428571428571441
40
0.74285714285714299
40
0.77142857142857157
40
0.80000000000000016
40
0.82857142857142874
40
0.85714285714285732
40
0.8857142857142859
40
0.91428571428571448
40
0.94285714285714306
40
0.97142857142857164
40
1
40
1
40
1
40
1
40
1
40
1
41
1
41
1
41
1
41
1
41
1
41
1
41
1
41
1
41
1
41
1
41
1
41
1
41
1
41
1
41
1
41
1
41
1
41
1
41
1
41
1
41
1
41
1
41
1
41
1
41
1
41
1
41
1
41
1
41
1
41
1
41
1
41
1
41
1
41
1
41
1
41
1
41
1
41
1
41
1
41
1
10
-0.4406666695431537
20
-0.82297833674450305
30
0
10
-0.4823130893050418
20
-0.82539956804120562
30
0
10
-0.56563013640345261
20
-0.8302900879442755
30
0
10
-0.69067831201160335
20
-0.83777004761265172
30
0
10
-0.85755477155461435
20
-0.84803200059717987
30
0
10
-1.0662676281354742
20
-0.86144152798325679
30
0
10
-1.2747222357252883
20
-0.87573127433582421
30
0
10
-1.4821595109705581
20
-0.89149797352942761
30
0
10
-1.6873205401816582
20
-0.90973121903498422
30
0
10
-1.888280949499642
20
-0.93193041667836163
30
0
10
-2.0826667801713619
20
-0.96004775147977106
30
0
10
-2.2679358456427519
20
-0.99639816806484538
30
0
10
-2.4416415591826852
20
-1.0435865938119442
30
0
10
-2.6016918082072782
20
-1.1044189446975321
30
0
10
-2.7466498048127113
20
-1.1818476643454474
30
0
10
-2.875323983644908
20
-1.2783533319608757
30
0
10
-2.9862525904512891
20
-1.3952267008837136
30
0
10
-3.077311493983204
20
-1.5319696969859766
30
0
10
-3.1450680559521982
20
-1.6854184503525718
30
0
10
-3.1850081802921384
20
-1.8497961748967042
30
0
10
-3.1927334470215722
20
-2.0177979160882038
30
0
10
-3.1648993737307696
20
-2.1813919870471086
30
0
10
-3.1002808339251713
20
-2.3327354168972696
30
0
10
-3.0007585937892314
20
-2.4650264851394916
30
0
10
-2.8707407957138558
20
-2.5726662308643022
30
0
10
-2.7166587564052498
20
-2.651470039581822
30
0
10
-2.5464047837758148
20
-2.6988078765883454
30
0
10
-2.3689288275616849
20
-2.7139453738011126
30
0
10
-2.1929512201998049
20
-2.6974609789022974
30
0
10
-2.0241574123319159
20
-2.6496454625900223
30
0
10
-1.8643503777131909
20
-2.5698945723182627
30
0
10
-1.7063856060999902
20
-2.4541617020730211
30
0
10
-1.5402418005257883
20
-2.2974613533362986
30
0
10
-1.3604434275015385
20
-2.0971344217800585
30
0
10
-1.1627962423515321
20
-1.8512962808841726
30
0
10
-0.94511798401849334
20
-1.5590909726806799
30
0
10
-0.75405145075597457
20
-1.28796959916103
30
0
10
-0.60110661968785684
20
-1.0636300069031079
30
0
10
-0.49486040610885412
20
-0.90474906104816522
30
0
10
-0.4406666695431537
20
-0.82297833674450305
30
0
0
SPLINE
5
107
100
AcDbEntity
8
0
100
AcDbSpline
70
4
71
5
72
51
73
45
74
0
42
0.000000001
43
0.0000000001
44
0.0000000001
40
0
40
0
40
0
40
0
40
0
40
0
40
0.025000000000000001
40
0.050000000000000003
40
0.075000000000000011
40
0.10000000000000001
40
0.125
40
0.14999999999999999
40
0.17499999999999999
40
0.19999999999999998
40
0.22499999999999998
40
0.24999999999999997
40
0.27499999999999997
40
0.29999999999999999
40
0.32500000000000001
40
0.35000000000000003
40
0.37500000000000006
40
0.40000000000000008
40
0.4250000000000001
40
0.45000000000000012
40
0.47500000000000014
40
0.50000000000000011
40
0.52500000000000013
40
0.55000000000000016
40
0.57500000000000018
40
0.6000000000000002
40
0.62500000000000022
40
0.65000000000000024
40
0.67500000000000027
40
0.70000000000000029
40
0.72500000000000031
40
0.75000000000000033
40
0.77500000000000036
40
0.80000000000000038
40
0.8250000000000004
40
0.85000000000000042
40
0.87500000000000044
40
0.90000000000000047
40
0.92500000000000049
40
0.95000000000000051
40
0.97500000000000053
40
1
40
1
40
1
40
1
40
1
40
1
41
1
41
1
41
1
41
1
41
1
41
1
41
1
41
1
41
1
41
1
41
1
41
1
41
1
41
1
41
1
41
1
41
1
41
1
41
1
41
1
41
1
41
1
41
1
41
1
41
1
41
1
41
1
41
1
41
1
41
1
41
1
41
1
41
1
41
1
41
1
41
1
41
1
41
1
41
1
41
1
41
1
41
1
41
1
41
1
41
1
10
-0.17998239130870342
20
-0.66006446874329794
30
0
10
-0.24054512321455496
20
-0.66505470105821529
30
0
10
-0.36033876929391861
20
-0.67490883310897753
30
0
10
-0.53603378623533005
20
-0.68931103472076782
30
0
10
-0.76229476111535499
20
-0.70775519341584947
30
0
10
-1.0317598217711066
20
-0.72966269080508717
30
0
10
-1.2878573991379307
20
-0.7507812118934315
30
0
10
-1.5306373735631991
20
-0.7718355643467063
30
0
10
-1.7602392183927142
20
-0.79404079554039408
30
0
10
-1.9769276026092224
20
-0.81923083558084175
30
0
10
-2.1811256093192553
20
-0.84998100325496317
30
0
10
-2.3732425872656524
20
-0.88921817758187094
30
0
10
-2.5535026352011894
20
-0.93983466789001269
30
0
10
-2.7217784537936742
20
-1.004308467468618
30
0
10
-2.8774099972281086
20
-1.0843002485176205
30
0
10
-3.019064495894614
20
-1.180310048325385
30
0
10
-3.1449516895890612
20
-1.2918576495127452
30
0
10
-3.2530063434674372
20
-1.4176129025180324
30
0
10
-3.341082534134483
20
-1.5555375040135937
30
0
10
-3.4071443068741889
20
-1.7030249796639907
30
0
10
-3.4494632056605603
20
-1.8569950985375061
30
0
10
-3.4668382120519716
20
-2.0139579904024414
30
0
10
-3.4587783106462391
20
-2.1700969109206487
30
0
10
-3.4257838999655781
20
-2.3213158191177836
30
0
10
-3.369303517253603
20
-2.4633942914509603
30
0
10
-3.2912008619674076
20
-2.5923009197913434
30
0
10
-3.1933946123526913
20
-2.7044545551970156
30
0
10
-3.0773205762153704
20
-2.797041090428988
30
0
10
-2.9438188795371905
20
-2.8682104281381262
30
0
10
-2.7941896989454373
20
-2.9169675291794035
30
0
10
-2.6309968683241665
20
-2.943110077204274
30
0
10
-2.4590702634952875
20
-2.9471802295052427
30
0
10
-2.286161019913338
20
-2.9303322962254974
30
0
10
-2.1194068633252394
20
-2.8927089971271687
30
0
10
-1.9622809775700309
20
-2.8320612711671904
30
0
10
-1.8109665941093862
20
-2.7419976287563408
30
0
10
-1.6514947593826341
20
-2.6108075123327641
30
0
10
-1.4754136264901776
20
-2.4311165934382855
30
0
10
-1.2760990687884846
20
-2.1974056647909421
30
0
10
-1.0495126979059028
20
-1.906346064802948
30
0
10
-0.79320098201277034
20
-1.5560248847326865
30
0
10
-0.56348565699150033
20
-1.2277300080739726
30
0
10
-0.37717970867704592
20
-0.95442041769512054
30
0
10
-0.24675213408203475
20
-0.76018755289423157
30
0
10
-0.17998239130870339
20
-0.66006446874329783
30
0
0
SPLINE
5
108
100
AcDbEntity
8
0
100
AcDbSpline
70
4
71
5
72
46
73
40
74
0
42
0.000000001
43
0.0000000001
44
0.0000000001
40
0
40
0
40
0
40
0
40
0
40
0
40
0.028571428571428571
40
0.057142857142857141
40
0.085714285714285715
40
0.11428571428571428
40
0.14285714285714285
40
0.17142857142857143
40
0.20000000000000001
40
0.22857142857142859
40
0.25714285714285717
40
0.28571428571428575
40
0.31428571428571433
40
0.34285714285714292
40
0.3714285714285715
40
0.40000000000000008
40
0.42857142857142866
40
0.45714285714285724
40
0.48571428571428582
40
0.51428571428571435
40
0.54285714285714293
40
0.57142857142857151
40
0.60000000000000009
40
0.62857142857142867
40
0.65714285714285725
40
0.68571428571428583
40
0.71428571428571441
40
0.74285714285714299
40
0.77142857142857157
40
0.80000000000000016
40
0.82857142857142874
40
0.85714285714285732
40
0.8857142857142859
40
0.91428571428571448
40
0.94285714285714306
40
0.97142857142857164
40
1
40
1
40
1
40
1
40
1
40
1
41
1
41
1
41
1
41
1
41
1
41
1
41
1
41
1
41
1
41
1
41
1
41
1
41
1
41
1
41
1
41
1
41
1
41
1
41
1
41
1
41
1
41
1
41
1
41
1
41
1
41
1
41
1
41
1
41
1
41
1
41
1
41
1
41
1
41
1
41
1
41
1
41
1
41
1
41
1
41
1
10
0.4406666695431537
20
-0.82297833674450305
30
0
10
0.4823130893050418
20
-0.82539956804120562
30
0
10
0.56563013640345261
20
-0.8302900879442755
30
0
10
0.69067831201160335
20
-0.83777004761265172
30
0
10
0.85755477155461435
20
-0.84803200059717987
30
0
10
1.0662676281354742
20
-0.86144152798325679
30
0
10
1.2747222357252883
20
-0.87573127433582421
30
0
10
1.4821595109705581
20
-0.89149797352942761
30
0
10
1.6873205401816582
20
-0.90973121903498422
30
0
10
1.888280949499642
20
-0.93193041667836163
30
0
10
2.0826667801713619
20
-0.96004775147977106
30
0
10
2.2679358456427519
20
-0.99639816806484538
30
0
10
2.4416415591826852
20
-1.0435865938119442
30
0
10
2.6016918082072782
20
-1.1044189446975321
30
0
10
2.7466498048127113
20
-1.1818476643454474
30
0
10
2.875323983644908
20
-1.2783533319608757
30
0
10
2.9862525904512891
20
-1.3952267008837136
30
0
10
3.077311493983204
20
-1.5319696969859766
30
0
10
3.1450680559521982
20
-1.6854184503525718
30
0
10
3.1850081802921384
20
-1.8497961748967042
30
0
10
3.1927334470215722
20
-2.0177979160882038
30
0
10
3.1648993737307696
20
-2.1813919870471086
30
0
10
3.1002808339251713
20
-2.3327354168972696
30
0
10
3.0007585937892314
20
-2.4650264851394916
30
0
10
2.8707407957138558
20
-2.5726662308643022
30
0
10
2.7166587564052498
20
-2.651470039581822
30
0
10
2.5464047837758148
20
-2.6988078765883454
30
0
10
2.3689288275616849
20
-2.7139453738011126
30
0
10
2.1929512201998049
20
-2.6974609789022974
30
0
10
2.0241574123319159
20
-2.6496454625900223
30
0
10
1.8643503777131909
20
-2.5698945723182627
30
0
10
1.7063856060999902
20
-2.4541617020730211
30
0
10
1.5402418005257883
20
-2.2974613533362986
30
0
10
1.3604434275015385
20
-2.0971344217800585
30
0
10
1.1627962423515321
20
-1.8512962808841726
30
0
10
0.94511798401849334
20
-1.5590909726806799
30
0
10
0.75405145075597457
20
-1.28796959916103
30
0
10
0.60110661968785684
20
-1.0636300069031079
30
0
10
0.49486040610885412
20
-0.90474906104816522
30
0
10
0.4406666695431537
20
-0.82297833674450305
30
0
0
SPLINE
5
109
100
AcDbEntity
8
0
100
AcDbSpline
70
4
71
5
72
51
73
45
74
0
42
0.000000001
43
0.0000000001
44
0.0000000001
40
0
40
0
40
0
40
0
40
0
40
0
40
0.025000000000000001
40
0.050000000000000003
40
0.075000000000000011
40
0.10000000000000001
40
0.125
40
0.14999999999999999
40
0.17499999999999999
40
0.19999999999999998
40
0.22499999999999998
40
0.24999999999999997
40
0.27499999999999997
40
0.29999999999999999
40
0.32500000000000001
40
0.35000000000000003
40
0.37500000000000006
40
0.40000000000000008
40
0.4250000000000001
40
0.45000000000000012
40
0.47500000000000014
40
0.50000000000000011
40
0.52500000000000013
40
0.55000000000000016
40
0.57500000000000018
40
0.6000000000000002
40
0.62500000000000022
40
0.65000000000000024
40
0.67500000000000027
40
0.70000000000000029
40
0.72500000000000031
40
0.75000000000000033
40
0.77500000000000036
40
0.80000000000000038
40
0.8250000000000004
40
0.85000000000000042
40
0.87500000000000044
40
0.90000000000000047
40
0.92500000000000049
40
0.95000000000000051
40
0.97500000000000053
40
1
40
1
40
1
40
1
40
1
40
1
41
1
41
1
41
1
41
1
41
1
41
1
41
1
41
1
41
1
41
1
41
1
41
1
41
1
41
1
41
1
41
1
41
1
41
1
41
1
41
1
41
1
41
1
41
1
41
1
41
1
41
1
41
1
41
1
41
1
41
1
41
1
41
1
41
1
41
1
41
1
41
1
41
1
41
1
41
1
41
1
41
1
41
1
41
1
41
1
41
1
10
0.17998239130870342
20
-0.66006446874329794
30
0
10
0.24054512321455496
20
-0.66505470105821529
30
0
10
0.36033876929391861
20
-0.67490883310897753
30
0
10
0.53603378623533005
20
-0.68931103472076782
30
0
10
0.76229476111535499
20
-0.70775519341584947
30
0
10
1.0317598217711066
20
-0.72966269080508717
30
0
10
1.2878573991379307
20
-0.7507812118934315
30
0
10
1.5306373735631991
20
-0.7718355643467063
30
0
10
1.7602392183927142
20
-0.79404079554039408
30
0
10
1.9769276026092224
20
-0.81923083558084175
30
0
10
2.1811256093192553
20
-0.84998100325496317
30
0
10
2.3732425872656524
20
-0.88921817758187094
30
0
10
2.5535026352011894
20
-0.93983466789001269
30
0
10
2.7217784537936742
20
-1.004308467468618
30
0
10
2.8774099972281086
20
-1.0843002485176205
30
0
10
3.019064495894614
20
-1.180310048325385
30
0
10
3.1449516895890612
20
-1.2918576495127452
30
0
10
3.2530063434674372
20
-1.4176129025180324
30
0
10
3.341082534134483
20
-1.5555375040135937
30
0
10
3.4071443068741889
20
-1.7030249796639907
30
0
10
3.4494632056605603
20
-1.8569950985375061
30
0
10
3.4668382120519716
20
-2.0139579904024414
30
0
10
3.4587783106462391
20
-2.1700969109206487
30
0
10
3.4257838999655781
20
-2.3213158191177836
30
0
10
3.369303517253603
20
-2.4633942914509603
30
0
10
3.2912008619674076
20
-2.5923009197913434
30
0
10
3.1933946123526913
20
-2.7044545551970156
30
0
10
3.0773205762153704
20
-2.797041090428988
30
0
10
2.9438188795371905
20
-2.8682104281381262
30
0
10
2.7941896989454373
20
-2.9169675291794035
30
0
10
2.6309968683241665
20
-2.943110077204274
30
0
10
2.4590702634952875
20
-2.9471802295052427
30
0
10
2.286161019913338
20
-2.9303322962254974
30
0
10
2.1194068633252394
20
-2.8927089971271687
30
0
10
1.9622809775700309
20
-2.8320612711671904
30
0
10
1.8109665941093862
20
-2.7419976287563408
30
0
10
1.6514947593826341
20
-2.6108075123327641
30
0
10
1.4754136264901776
20
-2.4311165934382855
30
0
10
1.2760990687884846
20
-2.1974056647909421
30
0
10
1.0495126979059028
20
-1.906346064802948
30
0
10
0.79320098201277034
20
-1.5560248847326865
30
0
10
0.56348565699150033
20
-1.2277300080739726
30
0
10
0.37717970867704592
20
-0.95442041769512054
30
0
10
0.24675213408203475
20
-0.76018755289423157
30
0
10
0.17998239130870339
20
-0.66006446874329783
30
0
0
SPLINE
5
110
100
AcDbEntity
8
0
100
AcDbSpline
70
4
71
5
72
36
73
30
74
0
42
0.000000001
43
0.0000000001
44
0.0000000001
40
0
40
0
40
0
40
0
40
0
40
0
40
0.040000000000000001
40
0.080000000000000002
40
0.12
40
0.16
40
0.20000000000000001
40
0.24000000000000002
40
0.28000000000000003
40
0.32000000000000001
40
0.35999999999999999
40
0.39999999999999997
40
0.43999999999999995
40
0.47999999999999993
40
0.51999999999999991
40
0.55999999999999994
40
0.59999999999999998
40
0.64000000000000001
40
0.68000000000000005
40
0.72000000000000008
40
0.76000000000000012
40
0.80000000000000016
40
0.84000000000000019
40
0.88000000000000023
40
0.92000000000000026
40
0.9600000000000003
40
1
40
1
40
1
40
1
40
1
40
1
41
1
41
1
41
1
41
1
41
1
41
1
41
1
41
1
41
1
41
1
41
1
41
1
41
1
41
1
41
1
41
1
41
1
41
1
41
1
41
1
41
1
41
1
41
1
41
1
41
1
41
1
41
1
41
1
41
1
41
1
10
0
20
-0.82000003894791007
30
0
10
0.016697008853689108
20
-0.83781657416765021
30
0
10
0.049687288752897178
20
-0.87327304496712432
30
0
10
0.097961527229265197
20
-0.92592793259095862
30
0
10
0.15979813600330933
20
-0.99510349099389839
30
0
10
0.2322851627127939
20
-1.0799723617364512
30
0
10
0.29923945117042833
20
-1.1633130967713043
30
0
10
0.36002003882860573
20
-1.2450519085774561
30
0
10
0.41424875766628844
20
-1.3248891602105299
30
0
10
0.46207990635250185
20
-1.4021660582150444
30
0
10
0.50420587070670342
20
-1.4758940185376714
30
0
10
0.54134014042706069
20
-1.5451028512047216
30
0
10
0.57378642699905247
20
-1.6091415720235402
30
0
10
0.60103074216317387
20
-1.6679623788630258
30
0
10
0.62118005751102512
20
-1.7225152961467343
30
0
10
0.63089358951320706
20
-1.774804656830318
30
0
10
0.62661685495424291
20
-1.8270471670383199
30
0
10
0.60563775060498026
20
-1.880957920730969
30
0
10
0.56708809908820079
20
-1.9370746951574904
30
0
10
0.51333783147181378
20
-1.9938227029323463
30
0
10
0.44920288276376086
20
-2.0480512391662007
30
0
10
0.38038980158137398
20
-2.0960852501088092
30
0
10
0.3121426914338028
20
-2.1346477673002107
30
0
10
0.24795686406281153
20
-2.1617337721061505
30
0
10
0.18786850372124969
20
-2.1777913197362473
30
0
10
0.12922185477417078
20
-2.1851387200184198
30
0
10
0.080503007938545826
20
-2.1864295201377422
30
0
10
0.041425733109558542
20
-2.1860076923176344
30
0
10
0.014032269830034638
20
-2.1852726927844364
30
0
10
2.8189256484623115e-16
20
-2.1847917843190503
30
0
0
SPLINE
5
111
100
AcDbEntity
8
0
100
AcDbSpline
70
4
71
5
72
36
73
30
74
0
42
0.000000001
43
0.0000000001
44
0.0000000001
40
0
40
0
40
0
40
0
40
0
40
0
40
0.040000000000000001
40
0.080000000000000002
40
0.12
40
0.16
40
0.20000000000000001
40
0.24000000000000002
40
0.28000000000000003
40
0.32000000000000001
40
0.35999999999999999
40
0.39999999999999997
40
0.43999999999999995
40
0.47999999999999993
40
0.51999999999999991
40
0.55999999999999994
40
0.59999999999999998
40
0.64000000000000001
40
0.68000000000000005
40
0.72000000000000008
40
0.76000000000000012
40
0.80000000000000016
40
0.84000000000000019
40
0.88000000000000023
40
0.92000000000000026
40
0.9600000000000003
40
1
40
1
40
1
40
1
40
1
40
1
41
1
41
1
41
1
41
1
41
1
41
1
41
1
41
1
41
1
41
1
41
1
41
1
41
1
41
1
41
1
41
1
41
1
41
1
41
1
41
1
41
1
41
1
41
1
41
1
41
1
41
1
41
1
41
1
41
1
41
1
10
0
20
-0.82000003894791007
30
0
10
-0.016697008853689108
20
-0.83781657416765021
30
0
10
-0.049687288752897178
20
-0.87327304496712432
30
0
10
-0.097961527229265197
20
-0.92592793259095862
30
0
10
-0.15979813600330933
20
-0.99510349099389839
30
0
10
-0.2322851627127939
20
-1.0799723617364512
30
0
10
-0.29923945117042833
20
-1.1633130967713043
30
0
10
-0.36002003882860573
20
-1.2450519085774561
30
0
10
-0.41424875766628844
20
-1.3248891602105299
30
0
10
-0.46207990635250185
20
-1.4021660582150444
30
0
10
-0.50420587070670342
20
-1.4758940185376714
30
0
10
-0.54134014042706069
20
-1.5451028512047216
30
0
10
-0.57378642699905247
20
-1.6091415720235402
30
0
10
-0.60103074216317387
20
-1.6679623788630258
30
0
10
-0.62118005751102512
20
-1.7225152961467343
30
0
10
-0.63089358951320706
20
-1.774804656830318
30
0
10
-0.62661685495424291
20
-1.8270471670383199
30
0
10
-0.60563775060498026
20
-1.880957920730969
30
0
10
-0.56708809908820079
20
-1.9370746951574904
30
0
10
-0.51333783147181378
20
-1.9938227029323463
30
0
10
-0.44920288276376086
20
-2.0480512391662007
30
0
10
-0.38038980158137398
20
-2.0960852501088092
30
0
10
-0.3121426914338028
20
-2.1346477673002107
30
0
10
-0.24795686406281153
20
-2.1617337721061505
30
0
10
-0.18786850372124969
20
-2.1777913197362473
30
0
10
-0.12922185477417078
20
-2.1851387200184198
30
0
10
-0.080503007938545826
20
-2.1864295201377422
30
0
10
-0.041425733109558542
20
-2.1860076923176344
30
0
10
-0.014032269830034638
20
-2.1852726927844364
30
0
10
-2.8189256484623115e-16
20
-2.1847917843190503
30
0
0
LINE
5
112
100
AcDbEntity
8
0
100
AcDbLine
10
8.7499313966029106
20
5.2471283208325614
30
0
11
-8.7499313966029106
21
5.2471283208325614
31
0
0
LINE
5
113
100
AcDbEntity
8
0
100
AcDbLine
10
8.7499313966029106
20
-5.2471283208325605
30
0
11
8.7499313966029106
21
5.2471283208325623
31
0
0
LINE
5
114
100
AcDbEntity
8
0
100
AcDbLine
10
-8.7499313966029089
20
-5.2471283208325605
30
0
11
8.7499313966029106
21
-5.2471283208325605
31
0
0
LINE
5
115
100
AcDbEntity
8
0
100
AcDbLine
10
-8.7499313966029089
20
5.2471283208325614
30
0
11
-8.7499313966029089
21
-5.2471283208325614
31
0
0
ENDSEC
0
SECTION
2
OBJECTS
0
DICTIONARY
5
C
100
AcDbDictionary
3
ACAD_GROUP
350
D
3
ACAD_MLINESTYLE
350
17
0
DICTIONARY
5
D
100
AcDbDictionary
0
DICTIONARY
5
1A
330
C
100
AcDbDictionary
0
DICTIONARY
5
17
100
AcDbDictionary
0
ENDSEC
0
EOF
